# xmcd
#
# Track frame offsets:
#	180
#	16604
#	32273
#	50444
#	73088
#	87342
#	106629
#	125389
#	144209
#	158025
#	174608
#	192909
#	211433
#	229643
#	246734
#	260844
#	279891
#	299953
#
# Disc length: 4223 seconds
#
# Revision: 2
# Processed by: cddbd v1.4b41PL2 Copyright (c) Steve Scherf et al.
# Submitted via: EZCDDA 4.3.2
#
DISCID=01107d12
DTITLE=Sandra - Greatest Hits
DYEAR=1900
DGENRE=
TTITLE0=Nights In White Satin
TTITLE1=I Need Love '95
TTITLE2=Maria Magdalena
TTITLE3=In The Heart Of The Night
TTITLE4=Little Girl
TTITLE5=Innocent Love
TTITLE6=Hi, Hi, Hi
TTITLE7=Loreen
TTITLE8=Midnight Man
TTITLE9=Everlasting Love
TTITLE10=Stop For A Minute
TTITLE11=Heaven Can Wait
TTITLE12=Secret Land
TTITLE13=Well'Be Together
TTITLE14=Around My Heart
TTITLE15=Hiroshima
TTITLE16=(Life May Be) A Big Insanity
TTITLE17=One More Night
EXTD=
EXTT0=
EXTT1=
EXTT2=
EXTT3=
EXTT4=
EXTT5=
EXTT6=
EXTT7=
EXTT8=
EXTT9=
EXTT10=
EXTT11=
EXTT12=
EXTT13=
EXTT14=
EXTT15=
EXTT16=
EXTT17=
PLAYORDER=
